<svg width="32" height="32" viewBox="0 0 32 32" fill="none" xmlns="http://www.w3.org/2000/svg">
<g clip-path="url(#clip0_24_7)">
<path fill-rule="evenodd" clip-rule="evenodd" d="M15.0573 11.0573C15.3074 10.8074 15.6464 10.667 16 10.667C16.3535 10.667 16.6926 10.8074 16.9427 11.0573L24.4853 18.6C24.7282 18.8515 24.8626 19.1883 24.8596 19.5379C24.8565 19.8875 24.7163 20.2219 24.4691 20.4691C24.2219 20.7163 23.8875 20.8565 23.5379 20.8596C23.1883 20.8626 22.8515 20.7282 22.6 20.4853L16 13.8853L9.4 20.4853C9.14853 20.7282 8.81172 20.8626 8.46213 20.8596C8.11253 20.8565 7.77812 20.7163 7.5309 20.4691C7.28369 20.2219 7.14347 19.8875 7.14043 19.5379C7.13739 19.1883 7.27179 18.8515 7.51466 18.6L15.0573 11.0573Z" fill="white"/>
</g>
<defs>
<clipPath id="clip0_24_7">
<rect width="32" height="32" fill="white"/>
</clipPath>
</defs>
</svg>
